<svg xmlns="http://www.w3.org/2000/svg" width="208" height="303" viewBox="0 0 167.1 242.7"><style>.a{stroke-width:0.03;stroke:#fb0f0c;}.b{fill:#fff;stroke-width:0.03;stroke:#fff;}.c{fill:#fff;}</style><g transform="matrix(1 0 0 1.0029936 0 -0.363221)" style="fill:#fb0f0c;stroke:#000"><path d="M166.8 235.5C166.8 239.3 163.7 242.4 160 242.4L7.1 242.4C3.3 242.4 0.3 239.3 0.3 235.5L0.3 7.1C0.3 3.3 3.3 0.3 7.1 0.3L160 0.3C163.7 0.3 166.8 3.3 166.8 7.1L166.8 235.5 166.8 235.5z" style="fill:#fff;stroke-width:0.5"/><path d="M27.6 32.6C62.1 32.6 96.6 32.6 131.1 32.6 131.9 32.6 139.7 32.2 139.7 32.9 139.7 36.6 139.7 40.4 139.7 44.1 139.7 62.7 139.7 81.2 139.7 99.8 139.7 135.8 139.7 171.8 139.7 207.8 139.7 208 139.9 209.2 139.6 209.2 138 209.2 136.5 209.2 134.9 209.2 126.9 209.2 118.9 209.2 110.9 209.2 89.1 209.2 67.3 209.2 45.5 209.2 39.8 209.2 34.1 209.2 28.3 209.2 26.9 209.2 27.6 205.1 27.6 204 27.6 187.8 27.6 171.6 27.6 155.4 27.6 116.3 27.6 77.2 27.6 38.1 27.6 36.3 27.6 34.4 27.6 32.6" class="a"/><path d="M61.7 96.1C66.1 96.1 105.7 95.8 105.7 96.4 105.7 113.2 105.7 129.9 105.7 146.7 105.7 147.2 61.7 146.7 61.7 146.9 61.7 130.2 61.7 113.5 61.7 96.9 61.7 96.6 61.7 96.3 61.7 96.1" class="b"/><path d="M83.7 91.5C79.3 96.5 75 101.5 70.7 106.5 67.7 109.8 64.8 113.2 61.9 116.6 61.2 117.4 57.7 120.4 57.7 121.5 57.7 122.5 60.9 125.3 61.6 126 64.6 129.5 67.6 133 70.7 136.5 75 141.5 79.3 146.5 83.7 151.5 88 146.5 92.3 141.5 96.7 136.5 99.6 133.1 102.5 129.7 105.5 126.4 106.1 125.6 109.7 122.6 109.7 121.5 109.7 120.5 106.4 117.7 105.8 117 102.8 113.5 99.7 110 96.7 106.5 92.3 101.5 88 96.5 83.7 91.5" class="b"/><path d="M63.7 98.4C71.9 98.4 80.2 98.4 88.5 98.4 93 98.4 97.4 98.4 101.9 98.4 104.2 98.4 103.7 98.6 103.7 100.9 103.7 111 103.7 121.2 103.7 131.3 103.7 135.3 103.7 139.3 103.7 143.2 103.7 145.3 102.5 144.6 100.5 144.6 91.7 144.6 83 144.6 74.2 144.6 71 144.6 67.8 144.6 64.6 144.6 63.1 144.6 63.7 143.5 63.7 142.1 63.7 127.5 63.7 112.9 63.7 98.4" class="a"/><path d="M83.7 93.8C79.7 98.3 75.8 102.8 71.9 107.4 69.1 110.6 66.3 113.8 63.5 117.1 62.9 117.8 59.7 120.5 59.7 121.5 59.7 122.4 62.6 124.9 63.2 125.5 65.9 128.7 68.7 131.9 71.4 135.1 75.5 139.8 79.6 144.5 83.7 149.2 87.6 144.6 91.5 140.1 95.5 135.6 98.3 132.4 101.1 129.1 103.8 125.9 104.5 125.2 107.7 122.5 107.7 121.5 107.7 120.6 104.7 118.1 104.2 117.4 101.4 114.3 98.7 111.1 95.9 107.9 91.8 103.2 87.7 98.5 83.7 93.8" class="a"/><path d="M67.7 103C76.4 103 85 103 93.7 103 94.8 103 99.7 102.3 99.7 103.6 99.7 107.5 99.7 111.4 99.7 115.4 99.7 117.1 99.7 139.9 99.7 139.9 90.8 139.9 81.9 139.9 73.1 139.9 72 139.9 67.7 140.7 67.7 139.4 67.7 135.4 67.7 131.5 67.7 127.6 67.7 119.4 67.7 111.2 67.7 103" class="b"/><path d="M83.7 98.4C80.3 102.2 77 106.1 73.7 109.9 71.4 112.5 69.2 115.1 67 117.7 66.4 118.3 63.7 120.6 63.7 121.5 63.7 122.2 66.1 124.3 66.6 124.9 69 127.6 71.3 130.3 73.7 133 77 136.9 80.3 140.7 83.7 144.6 87 140.7 90.3 136.9 93.7 133 95.9 130.4 98.1 127.9 100.4 125.3 100.9 124.7 103.7 122.3 103.7 121.5 103.7 120.7 101.2 118.6 100.7 118.1 98.4 115.4 96 112.6 93.7 109.9 90.3 106.1 87 102.2 83.7 98.4" class="b"/><path d="M69.7 105.3C78.2 105.3 86.7 105.3 95.3 105.3 98.4 105.3 97.7 105.6 97.7 108.7 97.7 113.9 97.7 119.1 97.7 124.2 97.7 128.5 97.7 132.7 97.7 137 97.7 138.5 92.4 137.6 91.2 137.6 85.8 137.6 80.4 137.6 75 137.6 73.1 137.6 69.7 138.7 69.7 136.5 69.7 126.1 69.7 115.7 69.7 105.3" class="a"/><path d="M83.7 100.7C80.7 104.1 77.8 107.5 74.9 110.8 72.8 113.3 70.7 115.7 68.6 118.1 68.1 118.7 65.7 120.7 65.7 121.5 65.7 122.1 67.8 124 68.2 124.4 70.3 126.8 72.4 129.2 74.4 131.6 77.5 135.2 80.6 138.7 83.7 142.3 86.6 138.9 89.5 135.5 92.4 132.1 94.6 129.7 96.7 127.3 98.8 124.8 99.2 124.3 101.7 122.2 101.7 121.5 101.7 120.8 99.5 119 99.1 118.5 97.1 116.1 95 113.7 92.9 111.4 89.8 107.8 86.7 104.3 83.7 100.7" class="a"/><path d="M83.7 103C81.1 106 78.5 109 75.9 112 74.1 114.1 72.2 116.2 70.4 118.3 70 118.8 67.7 120.8 67.7 121.5 67.7 122.1 69.7 123.8 70.1 124.3 71.9 126.3 73.7 128.4 75.4 130.5 78.2 133.6 80.9 136.8 83.7 139.9 86.3 137 88.9 134 91.5 131 93.3 128.9 95.1 126.8 96.9 124.7 97.4 124.2 99.7 122.2 99.7 121.5 99.7 120.9 97.6 119.1 97.3 118.7 95.5 116.6 93.7 114.6 91.9 112.5 89.2 109.3 86.4 106.2 83.7 103" class="b"/><path d="M71.7 107.6C79.6 107.6 87.6 107.6 95.6 107.6 95.8 107.6 95.7 130.3 95.7 132.4 95.7 132.9 96 135 95.7 135.3 95.3 135.7 92.4 135.3 91.9 135.3 86.6 135.3 81.3 135.3 75.9 135.3 74.6 135.3 73.2 135.3 71.8 135.3 71.5 135.3 71.7 133.1 71.7 132.9 71.7 127.7 71.7 122.5 71.7 117.4 71.7 114.1 71.7 110.9 71.7 107.6" class="b"/><path d="M83.7 107.6C81.7 109.9 79.7 112.2 77.7 114.6 76.3 116.1 74.9 117.7 73.5 119.3 73.2 119.7 71.7 121 71.7 121.5 71.7 122 73.2 123.3 73.5 123.6 74.9 125.2 76.3 126.8 77.7 128.4 79.7 130.7 81.7 133 83.7 135.3 85.7 133 87.7 130.7 89.7 128.4 91.1 126.8 92.4 125.2 93.8 123.6 94.1 123.3 95.7 122 95.7 121.5 95.7 121 94.1 119.7 93.8 119.3 92.4 117.7 91.1 116.1 89.7 114.6 87.7 112.2 85.7 109.9 83.7 107.6"/><path d="M113.7 93.8C112.4 93.8 111 93.8 109.7 93.8 111 95.3 112.4 96.9 113.7 98.4 113.7 96.9 113.7 95.3 113.7 93.8" class="b"/><path d="M113.7 100.7C112.4 99.2 111 97.6 109.7 96.1 109.7 97.6 109.7 99.1 109.7 100.6 109.7 100.8 113.2 100.7 113.7 100.7" class="b"/><path d="M53.7 93.8C55 93.8 56.3 93.8 57.7 93.8 56.3 95.3 55 96.9 53.7 98.4 53.7 96.9 53.7 95.3 53.7 93.8" class="b"/><path d="M53.7 100.7C55 99.2 56.3 97.6 57.7 96.1 57.7 97.6 57.7 99.1 57.7 100.6 57.7 100.8 54.2 100.7 53.7 100.7" class="b"/><path d="M57.7 142.3C56.3 142.3 55 142.3 53.7 142.3 55 143.8 56.3 145.3 57.7 146.9 57.7 145.3 57.7 143.8 57.7 142.3" class="b"/><path d="M57.7 149.2C56.3 147.6 55 146.1 53.7 144.6 53.7 146.1 53.7 147.6 53.7 149 53.7 149.3 57.1 149.2 57.7 149.2" class="b"/><path d="M109.7 142.3C111 142.3 112.4 142.3 113.7 142.3 112.4 143.8 111 145.3 109.7 146.9 109.7 145.3 109.7 143.8 109.7 142.3" class="b"/><path d="M109.7 149.2C111 147.6 112.4 146.1 113.7 144.6 113.7 146.1 113.7 147.6 113.7 149 113.7 149.3 110.2 149.2 109.7 149.2" class="b"/><path d="M57.7 126.1C56.3 126.1 55 126.1 53.7 126.1 55 127.6 56.3 129.2 57.7 130.7 57.7 129.2 57.7 127.6 57.7 126.1" class="b"/><path d="M57.7 133C56.3 131.5 55 129.9 53.7 128.4 53.7 129.9 53.7 131.4 53.7 132.9 53.7 133.2 57.1 133 57.7 133" class="b"/><path d="M53.7 109.9C55 109.9 56.3 109.9 57.7 109.9 56.3 111.5 55 113 53.7 114.6 53.7 113 53.7 111.5 53.7 109.9" class="b"/><path d="M53.7 116.9C55 115.3 56.3 113.8 57.7 112.2 57.7 113.7 57.7 115.2 57.7 116.7 57.7 117 54.2 116.9 53.7 116.9" class="b"/><path d="M113.7 109.9C112.4 109.9 111 109.9 109.7 109.9 111 111.5 112.4 113 113.7 114.6 113.7 113 113.7 111.5 113.7 109.9" class="b"/><path d="M113.7 116.9C112.4 115.3 111 113.8 109.7 112.2 109.7 113.7 109.7 115.2 109.7 116.7 109.7 117 113.2 116.9 113.7 116.9" class="b"/><path d="M109.7 126.1C111 126.1 112.4 126.1 113.7 126.1 112.4 127.6 111 129.2 109.7 130.7 109.7 129.2 109.7 127.6 109.7 126.1" class="b"/><path d="M109.7 133C111 131.5 112.4 129.9 113.7 128.4 113.7 129.9 113.7 131.4 113.7 132.9 113.7 133.2 110.2 133 109.7 133" class="b"/><path d="M69.7 24.8C68.9 22.8 68 20.7 67.5 18.6 67 16.7 66.6 12.1 69.1 11.1 71.5 10.3 72.4 14.5 72.4 16.1 72.3 18.6 71.2 21.1 70.3 23.4 70.1 23.9 69.9 24.4 69.7 24.8"/><path d="M69.7 24.9C67.7 24 65.4 23.2 63.7 21.9 62.1 20.8 59.6 17.4 61 15.3 62.5 13.2 65.6 15.6 66.6 17 68 19.1 68.7 21.8 69.5 24.2 69.5 24.4 69.6 24.6 69.7 24.9"/><path d="M69.7 24.9C71.7 24 74 23.2 75.7 21.9 77.3 20.8 79.8 17.4 78.4 15.3 76.9 13.2 73.8 15.6 72.8 17 71.3 19.1 70.6 21.9 69.9 24.3 69.8 24.5 69.8 24.7 69.7 24.9"/><path d="M64.6 25.1C62.9 24.7 60.9 24.8 59.9 26.3 59.3 27.1 59.2 30.2 61 29.6 61.3 29.5 61.5 28.2 61.9 27.9 62.6 27.3 63.9 27.3 64.8 27.2 66 27.1 67.2 27.2 68.3 27.1 68.3 27.1 68.3 27.1 68.3 27.1 67.3 26.2 65.9 25.6 64.6 25.1"/><path d="M74.8 25.1C76.4 24.7 78.4 24.8 79.5 26.3 80 27.1 80.1 30.2 78.4 29.6 78.1 29.5 77.8 28.2 77.4 27.9 76.7 27.3 75.4 27.3 74.5 27.2 73.3 27.1 72.1 27.2 71 27.1 71 27.1 71 27.1 71 27.1 72.1 26.2 73.5 25.6 74.8 25.1"/><path d="M68.3 29.6C68.6 31.7 72.1 30.7 70.4 27.9 69.2 25.9 68.5 27.7 68.3 29.6"/><path d="M97.7 24.8C96.9 22.8 96 20.7 95.5 18.6 95 16.7 94.6 12.1 97.1 11.1 99.5 10.3 100.4 14.5 100.4 16.1 100.4 18.6 99.2 21.1 98.3 23.4 98.1 23.9 97.9 24.4 97.7 24.8"/><path d="M97.7 24.9C95.7 24 93.5 23.2 91.7 21.9 90.1 20.8 87.6 17.4 89.1 15.3 90.5 13.2 93.6 15.6 94.6 17 96.1 19.1 96.7 21.8 97.5 24.2 97.6 24.4 97.6 24.6 97.7 24.9"/><path d="M97.7 24.9C99.7 24 102 23.2 103.8 21.9 105.3 20.8 107.9 17.4 106.4 15.3 104.9 13.2 101.8 15.6 100.8 17 99.3 19.1 98.7 21.9 97.9 24.3 97.8 24.5 97.8 24.7 97.7 24.9"/><path d="M92.6 25.1C90.9 24.7 88.9 24.8 87.9 26.3 87.3 27.1 87.2 30.2 89 29.6 89.3 29.5 89.5 28.2 89.9 27.9 90.6 27.3 92 27.3 92.8 27.2 94 27.1 95.2 27.2 96.4 27.1 96.4 27.1 96.4 27.1 96.4 27.1 95.3 26.2 93.9 25.6 92.6 25.1"/><path d="M102.8 25.1C104.4 24.7 106.4 24.8 107.5 26.3 108 27.1 108.2 30.2 106.4 29.6 106.1 29.5 105.8 28.2 105.5 27.9 104.7 27.3 103.4 27.3 102.5 27.2 101.4 27.1 100.2 27.2 99 27.1 99 27.1 99 27.1 99 27.1 100.1 26.2 101.5 25.6 102.8 25.1"/><path d="M96.3 29.6C96.6 31.7 100.1 30.7 98.4 27.9 97.2 25.9 96.6 27.8 96.3 29.6"/><path d="M125.7 24.8C124.9 22.8 124.1 20.7 123.5 18.6 123 16.7 122.6 12.1 125.1 11.1 127.6 10.3 128.4 14.5 128.4 16.1 128.4 18.6 127.2 21.1 126.3 23.4 126.1 23.9 125.9 24.4 125.7 24.8"/><path d="M125.7 24.9C123.7 24 121.5 23.2 119.7 21.9 118.1 20.8 115.6 17.4 117.1 15.3 118.6 13.2 121.7 15.6 122.6 17 124.1 19.1 124.8 21.9 125.6 24.3 125.6 24.5 125.7 24.7 125.7 24.9"/><path d="M125.7 24.9C127.8 24 130 23.2 131.8 21.9 133.4 20.8 135.9 17.4 134.4 15.3 132.9 13.2 129.8 15.6 128.8 17 127.4 19.1 126.7 21.9 125.9 24.3 125.9 24.5 125.8 24.7 125.7 24.9"/><path d="M120.6 25.1C119 24.7 116.9 24.8 115.9 26.3 115.4 27.1 115.2 30.2 117 29.6 117.3 29.5 117.5 28.2 117.9 27.9 118.6 27.3 120 27.3 120.8 27.2 122 27.1 123.2 27.2 124.4 27.1 124.4 27.1 124.4 27.1 124.4 27.1 123.3 26.2 121.9 25.6 120.6 25.1"/><path d="M130.8 25.1C132.4 24.7 134.5 24.8 135.5 26.3 136 27.1 136.2 30.2 134.4 29.6 134.1 29.5 133.8 28.2 133.5 27.9 132.8 27.3 131.4 27.3 130.6 27.2 129.4 27.1 128.2 27.2 127 27.1 127 27.1 127 27.1 127 27.1 128.1 26.2 129.5 25.6 130.8 25.1"/><path d="M124.4 29.6C124.6 31.7 128.1 30.7 126.4 27.9 125.3 25.9 124.6 27.8 124.4 29.6"/><path d="M41.7 24.8C40.9 22.8 40 20.7 39.4 18.6 38.9 16.7 38.5 12.1 41.1 11.1 43.5 10.3 44.4 14.5 44.4 16.1 44.3 18.6 43.1 21.1 42.2 23.4 42.1 23.9 41.9 24.4 41.7 24.8"/><path d="M41.7 24.9C39.7 24 37.4 23.2 35.6 21.9 34.1 20.8 31.6 17.4 33 15.3 34.5 13.2 37.6 15.6 38.6 17 40 19.1 40.7 21.8 41.5 24.2 41.5 24.4 41.6 24.6 41.7 24.9"/><path d="M41.7 24.9C43.7 24 45.9 23.2 47.7 21.9 49.3 20.8 51.8 17.4 50.3 15.3 48.9 13.2 45.8 15.6 44.8 17 43.3 19.1 42.7 21.8 41.9 24.2 41.8 24.4 41.8 24.6 41.7 24.9"/><path d="M36.5 25.1C34.9 24.7 32.9 24.8 31.9 26.3 31.3 27.1 31.2 30.2 32.9 29.6 33.2 29.5 33.5 28.2 33.9 27.9 34.6 27.3 35.9 27.3 36.8 27.2 38 27.1 39.2 27.2 40.3 27.1 40.3 27.1 40.3 27.1 40.3 27.1 39.2 26.2 37.9 25.6 36.5 25.1"/><path d="M46.8 25.1C48.4 24.7 50.4 24.8 51.4 26.3 52 27.1 52.1 30.2 50.4 29.6 50 29.5 49.8 28.2 49.4 27.9 48.7 27.3 47.4 27.3 46.5 27.2 45.3 27.1 44.1 27.2 43 27.1 43 27.1 43 27.1 43 27.1 44 26.2 45.4 25.6 46.8 25.1"/><path d="M40.3 29.6C40.5 31.7 44.1 30.7 42.4 27.9 41.2 25.9 40.5 27.8 40.3 29.6"/><path d="M69.5 217C68.6 219 67.8 221.1 67.2 223.2 66.7 225.1 66.3 229.7 68.8 230.7 71.3 231.5 72.2 227.3 72.1 225.7 72.1 223.2 70.9 220.7 70 218.4 69.8 217.9 69.6 217.4 69.5 217"/><path d="M69.4 216.9C67.4 217.8 65.2 218.6 63.4 219.9 61.8 221 59.3 224.4 60.8 226.5 62.3 228.6 65.4 226.2 66.4 224.8 67.8 222.8 68.5 220 69.2 217.7 69.3 217.4 69.4 217.2 69.4 216.9"/><path d="M69.5 216.9C71.5 217.8 73.7 218.6 75.5 219.9 77.1 221 79.6 224.4 78.1 226.5 76.6 228.6 73.5 226.2 72.5 224.8 71.1 222.7 70.4 219.9 69.6 217.5 69.6 217.3 69.5 217.1 69.5 216.9"/><path d="M64.3 216.7C62.7 217.1 60.7 217 59.6 215.5 59.1 214.7 58.9 211.6 60.7 212.2 61 212.3 61.3 213.6 61.6 213.9 62.4 214.5 63.7 214.5 64.6 214.6 65.7 214.7 66.9 214.6 68.1 214.7 68.1 214.7 68.1 214.7 68.1 214.7 67 215.6 65.6 216.3 64.3 216.7"/><path d="M74.5 216.7C76.1 217.1 78.2 217 79.2 215.5 79.8 214.7 79.9 211.6 78.1 212.2 77.8 212.3 77.6 213.6 77.2 213.9 76.5 214.5 75.1 214.5 74.3 214.6 73.1 214.7 71.9 214.6 70.7 214.7 70.7 214.7 70.7 214.7 70.7 214.7 71.8 215.6 73.2 216.3 74.5 216.7"/><path d="M68.1 212.2C68.3 210.1 71.8 211.1 70.2 213.9 69 215.9 68.3 214.1 68.1 212.2"/><path d="M97.5 217C96.7 219 95.8 221.1 95.2 223.2 94.7 225.1 94.3 229.7 96.9 230.7 99.3 231.5 100.2 227.3 100.1 225.7 100.1 223.2 98.9 220.7 98 218.4 97.9 217.9 97.7 217.4 97.5 217"/><path d="M97.5 216.9C95.5 217.8 93.2 218.6 91.4 219.9 89.9 221 87.3 224.4 88.8 226.5 90.3 228.6 93.4 226.2 94.4 224.8 95.8 222.7 96.5 219.9 97.3 217.5 97.3 217.3 97.4 217.1 97.5 216.9"/><path d="M97.5 216.9C99.5 217.8 101.7 218.6 103.5 219.9 105.1 221 107.6 224.4 106.1 226.5 104.6 228.6 101.6 226.2 100.6 224.8 99.1 222.7 98.4 219.9 97.6 217.5 97.6 217.3 97.5 217.1 97.5 216.9"/><path d="M92.3 216.7C90.7 217.1 88.7 217 87.6 215.5 87.1 214.7 87 211.6 88.7 212.2 89 212.3 89.3 213.6 89.7 213.9 90.4 214.5 91.7 214.5 92.6 214.6 93.7 214.7 95 214.6 96.1 214.7 96.1 214.7 96.1 214.7 96.1 214.7 95 215.6 93.6 216.3 92.3 216.7"/><path d="M102.5 216.7C104.2 217.1 106.2 217 107.2 215.5 107.8 214.7 107.9 211.6 106.1 212.2 105.8 212.3 105.6 213.6 105.2 213.9 104.5 214.5 103.2 214.5 102.3 214.6 101.1 214.7 99.9 214.6 98.8 214.7 98.8 214.7 98.8 214.7 98.7 214.7 99.8 215.6 101.2 216.3 102.5 216.7"/><path d="M96.1 212.2C96.3 210.1 99.9 211.1 98.2 213.9 97 215.9 96.3 214.1 96.1 212.2"/><path d="M125.5 217C124.7 219 123.8 221.1 123.3 223.2 122.7 225.1 122.3 229.7 124.9 230.7 127.3 231.5 128.2 227.3 128.2 225.7 128.1 223.2 126.9 220.7 126.1 218.4 125.9 217.9 125.7 217.4 125.5 217"/><path d="M125.5 216.9C123.5 217.8 121.2 218.6 119.5 219.9 117.9 221 115.4 224.4 116.8 226.5 118.3 228.6 121.4 226.2 122.4 224.8 123.8 222.8 124.5 220 125.3 217.7 125.3 217.4 125.4 217.2 125.5 216.9"/><path d="M125.5 216.9C127.5 217.8 129.7 218.6 131.5 219.9 133.1 221 135.6 224.4 134.2 226.5 132.7 228.6 129.6 226.2 128.6 224.8 127.1 222.8 126.5 220 125.7 217.7 125.6 217.4 125.6 217.2 125.5 216.9"/><path d="M120.3 216.7C118.7 217.1 116.7 217 115.7 215.5 115.1 214.7 115 211.6 116.7 212.2 117 212.3 117.3 213.6 117.7 213.9 118.4 214.5 119.7 214.5 120.6 214.6 121.8 214.7 123 214.6 124.1 214.7 124.1 214.7 124.1 214.7 124.1 214.7 123 215.6 121.7 216.3 120.3 216.7"/><path d="M130.6 216.7C132.2 217.1 134.2 217 135.2 215.5 135.8 214.7 135.9 211.6 134.2 212.2 133.9 212.3 133.6 213.6 133.2 213.9 132.5 214.5 131.2 214.5 130.3 214.6 129.1 214.7 127.9 214.6 126.8 214.7 126.8 214.7 126.8 214.7 126.8 214.7 127.9 215.6 129.2 216.3 130.6 216.7"/><path d="M124.1 212.2C124.4 210.1 127.9 211.1 126.2 213.9 125 215.9 124.3 214.1 124.1 212.2"/><path d="M41.4 217C40.6 219 39.8 221.1 39.2 223.2 38.7 225.1 38.3 229.7 40.8 230.7 43.3 231.5 44.1 227.3 44.1 225.7 44.1 223.2 42.9 220.7 42 218.4 41.8 217.9 41.6 217.4 41.4 217"/><path d="M41.4 216.9C39.4 217.8 37.2 218.6 35.4 219.9 33.8 221 31.3 224.4 32.8 226.5 34.3 228.6 37.3 226.2 38.3 224.8 39.8 222.8 40.5 220 41.2 217.7 41.3 217.4 41.4 217.2 41.4 216.9"/><path d="M41.4 216.9C43.4 217.8 45.7 218.6 47.5 219.9 49 221 51.6 224.4 50.1 226.5 48.6 228.6 45.5 226.2 44.5 224.8 43.1 222.7 42.4 219.9 41.6 217.5 41.6 217.3 41.5 217.1 41.4 216.9"/><path d="M36.3 216.7C34.7 217.1 32.6 217 31.6 215.5 31 214.7 30.9 211.6 32.7 212.2 33 212.3 33.2 213.6 33.6 213.9 34.3 214.5 35.7 214.5 36.5 214.6 37.7 214.7 38.9 214.6 40.1 214.7 40.1 214.7 40.1 214.7 40.1 214.7 39 215.6 37.6 216.3 36.3 216.7"/><path d="M46.5 216.7C48.1 217.1 50.1 217 51.2 215.5 51.7 214.7 51.9 211.6 50.1 212.2 49.8 212.3 49.5 213.6 49.2 213.9 48.5 214.5 47.1 214.5 46.2 214.6 45.1 214.7 43.9 214.6 42.7 214.7 42.7 214.7 42.7 214.7 42.7 214.7 43.8 215.6 45.2 216.3 46.5 216.7"/><path d="M40.1 212.2C40.3 210.1 43.8 211.1 42.1 213.9 41 215.9 40.3 214.1 40.1 212.2"/><path d="M146.5 218.4C148.4 219.4 150.5 220.6 152.6 221.2 154.5 221.7 158.2 221.2 158.5 218.7 158.8 216.2 155.4 215.1 153.5 215.3 151.2 215.6 148.7 217.2 146.7 218.3 146.6 218.3 146.6 218.3 146.5 218.4"/><path d="M146.5 218.4C147.3 221 149.9 230.9 154.4 228.5 156.7 227.4 154.9 223.6 153.7 222.3 152.1 220.5 149.3 219.6 147.1 218.6 146.9 218.5 146.7 218.5 146.5 218.4"/><path d="M146.5 218.4C147.3 215.8 149.9 205.8 154.4 208.2 156.7 209.3 154.9 213.1 153.7 214.4 152.1 216.2 149.3 217.2 147.1 218.1 146.9 218.2 146.7 218.3 146.5 218.4"/><path d="M146.2 224.3C146.6 226 146.7 228.5 145.2 229.7 144.3 230.5 141.8 230.2 142.3 228.5 142.5 228.1 143.6 227.8 143.9 227.4 144.5 226.5 144.4 225 144.5 224 144.5 222.7 144.4 221.3 144.6 219.9 144.6 219.9 144.6 219.9 144.6 219.9 145.4 221.2 145.9 222.8 146.2 224.3"/><path d="M146.2 212.5C146.6 210.8 146.7 208.3 145.2 207.1 144.3 206.3 141.8 206.6 142.3 208.4 142.5 208.7 143.6 209 143.9 209.4 144.5 210.3 144.4 211.9 144.5 212.8 144.5 214.2 144.4 215.6 144.6 216.9 144.6 216.9 144.6 216.9 144.6 216.9 145.4 215.6 145.9 214 146.2 212.5"/><path d="M142.4 220C140.5 219.5 141.3 215.6 143.9 217.6 145.4 218.8 144.3 219.6 142.4 220"/><path d="M146.5 186C148.4 187.1 150.5 188.3 152.6 188.9 154.5 189.4 158.2 188.9 158.5 186.3 158.8 183.9 155.4 182.8 153.5 183 151.2 183.3 148.7 184.9 146.7 185.9 146.6 186 146.6 186 146.5 186"/><path d="M146.5 186.1C147.3 188.7 149.9 198.6 154.4 196.2 156.7 195.1 154.9 191.3 153.7 190 152.1 188.2 149.3 187.3 147.1 186.3 146.9 186.2 146.7 186.1 146.5 186.1"/><path d="M146.5 186C147.3 183.4 149.9 173.5 154.4 175.9 156.7 177 154.9 180.8 153.7 182.1 152.1 183.9 149.3 184.8 147.1 185.8 146.9 185.9 146.7 186 146.5 186"/><path d="M146.2 192C146.6 193.7 146.7 196.2 145.2 197.4 144.3 198.2 141.8 197.9 142.3 196.1 142.5 195.8 143.6 195.5 143.9 195.1 144.5 194.2 144.4 192.7 144.5 191.7 144.5 190.3 144.4 189 144.6 187.6 144.6 187.6 144.6 187.6 144.6 187.6 145.4 188.9 145.9 190.5 146.2 192"/><path d="M146.2 180.2C146.6 178.5 146.7 176 145.2 174.8 144.3 174 141.8 174.3 142.3 176.1 142.5 176.4 143.6 176.7 143.9 177.1 144.5 178 144.4 179.5 144.5 180.5 144.5 181.9 144.4 183.2 144.6 184.6 144.6 184.6 144.6 184.6 144.6 184.6 145.4 183.3 145.9 181.7 146.2 180.2"/><path d="M142.4 187.6C140.5 187.2 141.3 183.2 143.9 185.2 145.4 186.4 144.3 187.3 142.4 187.6"/><path d="M146.5 153.7C148.4 154.8 150.5 156 152.6 156.5 154.5 157 158.2 156.6 158.5 154 158.8 151.6 155.4 150.5 153.5 150.7 151.2 151 148.7 152.5 146.7 153.6 146.6 153.7 146.6 153.7 146.5 153.7"/><path d="M146.5 153.7C147.3 156.3 149.9 166.3 154.4 163.9 156.7 162.8 154.9 159 153.7 157.7 152.1 155.9 149.3 155 147.1 154 146.9 153.9 146.7 153.8 146.5 153.7"/><path d="M146.5 153.7C147.3 151.1 149.9 141.2 154.4 143.6 156.7 144.7 154.9 148.5 153.7 149.8 152.1 151.6 149.3 152.5 147.1 153.5 146.9 153.6 146.7 153.6 146.5 153.7"/><path d="M146.2 159.7C146.6 161.4 146.7 163.9 145.2 165.1 144.3 165.9 141.8 165.6 142.3 163.8 142.5 163.5 143.6 163.2 143.9 162.8 144.5 161.9 144.4 160.3 144.5 159.4 144.5 158 144.4 156.6 144.6 155.3 145.4 156.6 145.9 158.2 146.2 159.7"/><path d="M146.2 147.9C146.6 146.2 146.7 143.7 145.2 142.5 144.3 141.7 141.8 142 142.3 143.7 142.5 144.1 143.6 144.4 143.9 144.8 144.5 145.7 144.4 147.2 144.5 148.2 144.5 149.5 144.4 150.9 144.6 152.3 145.4 151 145.9 149.4 146.2 147.9"/><path d="M142.4 155.3C140.5 154.9 141.3 150.9 143.9 152.9 145.4 154.1 144.3 155 142.4 155.3"/><path d="M146.5 89.1C148.4 90.1 150.5 91.4 152.6 91.9 154.5 92.4 158.2 91.9 158.5 89.4 158.8 87 155.4 85.9 153.5 86.1 151.2 86.3 148.7 87.9 146.7 89 146.6 89 146.6 89.1 146.5 89.1"/><path d="M146.5 89.1C147.3 91.7 149.9 101.6 154.4 99.3 156.7 98.1 154.9 94.4 153.7 93.1 152.1 91.3 149.3 90.3 147.1 89.4 146.9 89.3 146.7 89.2 146.5 89.1"/><path d="M146.5 89.1C147.3 86.5 149.9 76.6 154.4 78.9 156.7 80.1 154.9 83.8 153.7 85.1 152.1 86.9 149.3 87.9 147.1 88.8 146.9 88.9 146.7 89 146.5 89.1"/><path d="M146.2 95C146.6 96.7 146.7 99.2 145.2 100.4 144.2 101.3 141.8 100.9 142.4 99.2 142.5 98.9 143.7 98.4 144 98 144.5 97.1 144.4 95.5 144.5 94.6 144.5 93.3 144.4 91.9 144.6 90.7 145.4 92 145.9 93.6 146.2 95"/><path d="M146.2 83.3C146.6 81.6 146.7 79.1 145.2 77.9 144.3 77.1 141.8 77.3 142.3 79.1 142.5 79.4 143.6 79.8 143.9 80.2 144.5 81 144.4 82.6 144.5 83.6 144.5 84.9 144.4 86.3 144.6 87.6 144.6 87.6 144.6 87.6 144.6 87.6 145.4 86.3 145.9 84.7 146.2 83.3"/><path d="M142.4 90.7C140.5 90.3 141.3 86.3 143.9 88.3 145.4 89.5 144.3 90.4 142.4 90.7"/><path d="M146.5 56.8C148.4 57.8 150.5 59.1 152.6 59.6 154.5 60.1 158.2 59.6 158.5 57.1 158.8 54.6 155.4 53.5 153.5 53.8 151.2 54 148.7 55.6 146.7 56.7 146.6 56.7 146.6 56.7 146.5 56.8"/><path d="M146.5 56.8C147.3 59.4 149.9 69.3 154.4 67 156.7 65.8 154.9 62.1 153.7 60.8 152.1 59 149.3 58 147.1 57.1 146.9 57 146.7 56.9 146.5 56.8"/><path d="M146.5 56.8C147.3 54.2 149.9 44.3 154.4 46.6 156.7 47.8 154.9 51.5 153.7 52.8 152.1 54.6 149.3 55.6 147.1 56.5 146.9 56.6 146.7 56.7 146.5 56.8"/><path d="M146.2 62.7C146.6 64.4 146.7 66.9 145.2 68.1 144.3 68.9 141.8 68.7 142.3 66.9 142.5 66.6 143.6 66.2 143.9 65.8 144.5 65 144.4 63.4 144.5 62.4 144.5 61.1 144.4 59.7 144.6 58.4 144.6 58.4 144.6 58.4 144.6 58.4 145.4 59.7 145.9 61.2 146.2 62.7"/><path d="M146.2 50.9C146.6 49.3 146.7 46.8 145.2 45.5 144.3 44.7 141.8 45 142.3 46.8 142.5 47.1 143.6 47.5 143.9 47.9 144.5 48.7 144.4 50.3 144.5 51.2 144.5 52.6 144.4 54 144.6 55.3 144.6 55.3 144.6 55.3 144.6 55.3 145.4 54 145.9 52.4 146.2 50.9"/><path d="M142.4 58.4C140.5 57.9 141.3 54 143.9 56 145.4 57.2 144.3 58.1 142.4 58.4"/><path d="M146.5 24.5C148.4 25.5 150.5 26.7 152.6 27.3 154.5 27.8 158.2 27.3 158.5 24.8 158.8 22.3 155.4 21.2 153.5 21.4 151.2 21.7 148.7 23.3 146.7 24.4 146.6 24.4 146.6 24.4 146.5 24.5"/><path d="M146.5 24.5C147.3 27.1 149.9 37 154.4 34.7 156.7 33.5 154.9 29.7 153.7 28.5 152.1 26.6 149.3 25.7 147.1 24.7 146.9 24.7 146.7 24.6 146.5 24.5"/><path d="M146.5 24.5C147.3 21.9 149.9 11.9 154.4 14.3 156.7 15.4 154.9 19.2 153.7 20.5 152.1 22.3 149.3 23.3 147.1 24.2 146.9 24.3 146.7 24.4 146.5 24.5"/><path d="M146.2 30.4C146.6 32.1 146.7 34.6 145.2 35.8 144.3 36.6 141.8 36.4 142.3 34.6 142.5 34.2 143.6 33.9 143.9 33.5 144.5 32.7 144.4 31.1 144.5 30.1 144.5 28.8 144.4 27.4 144.6 26 145.4 27.3 145.9 28.9 146.2 30.4"/><path d="M146.2 18.6C146.6 17 146.7 14.4 145.2 13.2 144.3 12.4 141.8 12.7 142.3 14.5 142.5 14.8 143.6 15.1 143.9 15.6 144.5 16.4 144.4 18 144.5 18.9 144.5 20.3 144.4 21.7 144.6 23 145.4 21.7 145.9 20.1 146.2 18.6"/><path d="M142.4 26.1C140.5 25.6 141.3 21.7 143.9 23.7 145.4 24.9 144.3 25.7 142.4 26.1"/><path d="M146.5 121.4C148.4 122.4 150.5 123.7 152.6 124.2 154.5 124.7 158.2 124.3 158.5 121.7 158.8 119.3 155.4 118.2 153.5 118.4 151.2 118.7 148.7 120.2 146.7 121.3 146.6 121.3 146.6 121.4 146.5 121.4"/><path d="M146.5 121.4C147.3 124 149.9 133.9 154.4 131.6 156.7 130.5 154.9 126.7 153.7 125.4 152.1 123.6 149.3 122.6 147.1 121.7 146.9 121.6 146.7 121.5 146.5 121.4"/><path d="M146.5 121.4C147.3 118.8 149.9 108.9 154.4 111.2 156.7 112.4 154.9 116.2 153.7 117.4 152.1 119.3 149.3 120.2 147.1 121.2 146.9 121.2 146.7 121.3 146.5 121.4"/><path d="M146.2 127.4C146.6 129 146.7 131.5 145.2 132.8 144.3 133.6 141.8 133.3 142.3 131.5 142.5 131.2 143.6 130.8 143.9 130.4 144.5 129.6 144.4 128 144.5 127.1 144.5 125.7 144.4 124.3 144.6 123 144.6 123 144.6 123 144.6 123 145.4 124.3 145.9 125.9 146.2 127.4"/><path d="M146.2 115.6C146.6 113.9 146.7 111.4 145.2 110.2 144.3 109.4 141.8 109.6 142.3 111.4 142.5 111.8 143.6 112.1 143.9 112.5 144.5 113.3 144.4 114.9 144.5 115.9 144.5 117.2 144.4 118.6 144.6 119.9 145.4 118.7 145.9 117 146.2 115.6"/><path d="M142.4 123C140.5 122.6 141.3 118.6 143.9 120.6 145.4 121.8 144.3 122.7 142.4 123"/><path d="M20.8 218.4C18.9 219.4 16.8 220.6 14.7 221.2 12.8 221.7 9.2 221.2 8.8 218.7 8.5 216.2 12 215.1 13.8 215.3 16.2 215.6 18.6 217.2 20.6 218.3 20.7 218.3 20.8 218.3 20.8 218.4"/><path d="M20.9 218.4C20 221 17.5 230.9 12.9 228.5 10.7 227.4 12.5 223.6 13.6 222.3 15.3 220.5 18 219.6 20.2 218.6 20.4 218.5 20.6 218.5 20.9 218.4"/><path d="M20.9 218.4C20 215.8 17.5 205.8 12.9 208.2 10.7 209.3 12.5 213.1 13.6 214.4 15.3 216.2 18 217.2 20.2 218.1 20.4 218.2 20.7 218.3 20.9 218.4"/><path d="M21.1 224.3C20.7 226 20.6 228.5 22.1 229.7 23.1 230.5 25.6 230.2 25 228.5 24.9 228.1 23.7 227.8 23.4 227.4 22.9 226.5 22.9 225 22.9 224 22.8 222.7 22.9 221.3 22.8 219.9 22.8 219.9 22.8 219.9 22.8 219.9 22 221.2 21.4 222.8 21.1 224.3"/><path d="M21.1 212.5C20.7 210.8 20.6 208.3 22.1 207.1 23.1 206.3 25.6 206.6 25 208.4 24.9 208.7 23.7 209 23.4 209.4 22.9 210.3 22.9 211.9 22.9 212.8 22.8 214.2 22.9 215.6 22.8 216.9 22.8 216.9 22.8 216.9 22.8 216.9 22 215.6 21.4 214 21.1 212.5"/><path d="M25 220C26.8 219.5 26 215.6 23.5 217.6 21.9 218.8 23.1 219.6 25 220"/><path d="M20.8 186C18.9 187.1 16.8 188.3 14.7 188.9 12.8 189.4 9.2 188.9 8.8 186.3 8.5 183.9 12 182.8 13.8 183 16.2 183.3 18.6 184.9 20.6 185.9 20.7 186 20.8 186 20.8 186"/><path d="M20.9 186.1C20 188.7 17.5 198.6 12.9 196.2 10.7 195.1 12.5 191.3 13.6 190 15.3 188.2 18 187.3 20.2 186.3 20.4 186.2 20.7 186.1 20.9 186.1"/><path d="M20.9 186C20 183.4 17.5 173.5 12.9 175.9 10.7 177 12.5 180.8 13.6 182.1 15.3 183.9 18 184.8 20.2 185.8 20.4 185.9 20.6 186 20.9 186"/><path d="M21.1 192C20.7 193.7 20.6 196.2 22.1 197.4 23.1 198.2 25.6 197.9 25 196.1 24.9 195.8 23.7 195.5 23.4 195.1 22.9 194.2 22.9 192.7 22.9 191.7 22.8 190.3 22.9 189 22.8 187.6 22.8 187.6 22.8 187.6 22.8 187.6 22 188.9 21.4 190.5 21.1 192"/><path d="M21.1 180.2C20.7 178.5 20.6 176 22.1 174.8 23.1 174 25.6 174.3 25 176.1 24.9 176.4 23.7 176.7 23.4 177.1 22.9 178 22.9 179.5 22.9 180.5 22.8 181.9 22.9 183.2 22.8 184.6 22.8 184.6 22.8 184.6 22.8 184.6 22 183.3 21.4 181.7 21.1 180.2"/><path d="M25 187.6C26.8 187.2 26 183.2 23.5 185.2 21.9 186.4 23.1 187.3 25 187.6"/><path d="M20.8 153.7C18.9 154.8 16.8 156 14.7 156.5 12.8 157 9.2 156.6 8.8 154 8.5 151.6 12 150.5 13.8 150.7 16.2 151 18.6 152.5 20.6 153.6 20.7 153.7 20.8 153.7 20.8 153.7"/><path d="M20.9 153.7C20 156.3 17.5 166.3 12.9 163.9 10.7 162.8 12.5 159 13.6 157.7 15.3 155.9 18 155 20.2 154 20.4 153.9 20.7 153.8 20.9 153.7"/><path d="M20.9 153.7C20 151.1 17.5 141.2 12.9 143.6 10.7 144.7 12.5 148.5 13.6 149.8 15.3 151.6 18 152.5 20.2 153.5 20.4 153.6 20.7 153.6 20.9 153.7"/><path d="M21.1 159.7C20.7 161.4 20.6 163.9 22.1 165.1 23.1 165.9 25.6 165.6 25 163.8 24.9 163.5 23.7 163.2 23.4 162.8 22.9 161.9 22.9 160.3 22.9 159.4 22.8 158 23 156.6 22.8 155.3 22 156.6 21.4 158.2 21.1 159.7"/><path d="M21.1 147.9C20.7 146.2 20.6 143.7 22.1 142.5 23.1 141.7 25.6 142 25 143.7 24.9 144.1 23.7 144.4 23.4 144.8 22.9 145.7 22.9 147.2 22.9 148.2 22.8 149.5 23 150.9 22.8 152.3 22 151 21.4 149.4 21.1 147.9"/><path d="M25 155.3C26.8 154.9 26 150.9 23.5 152.9 21.9 154.1 23.1 155 25 155.3"/><path d="M20.8 89.1C18.9 90.1 16.8 91.4 14.7 91.9 12.8 92.4 9.2 91.9 8.8 89.4 8.5 87 12 85.9 13.8 86.1 16.2 86.3 18.6 87.9 20.6 89 20.7 89 20.8 89.1 20.8 89.1"/><path d="M20.9 89.1C20 91.7 17.5 101.6 12.9 99.3 10.7 98.1 12.5 94.4 13.6 93.1 15.3 91.3 18 90.3 20.2 89.4 20.4 89.3 20.6 89.2 20.9 89.1"/><path d="M20.9 89.1C20 86.5 17.5 76.6 12.9 78.9 10.7 80.1 12.5 83.8 13.6 85.1 15.3 86.9 18 87.9 20.2 88.8 20.4 88.9 20.7 89 20.9 89.1"/><path d="M21.1 95C20.7 96.7 20.6 99.2 22.1 100.4 23.1 101.3 25.5 100.9 25 99.2 24.9 98.9 23.7 98.4 23.4 98 22.8 97.1 22.9 95.5 22.9 94.6 22.8 93.3 23 91.9 22.8 90.7 22 92 21.4 93.6 21.1 95"/><path d="M21.1 83.3C20.7 81.6 20.6 79.1 22.1 77.9 23.1 77.1 25.6 77.3 25 79.1 24.9 79.4 23.7 79.8 23.4 80.2 22.9 81 22.9 82.6 22.9 83.6 22.8 84.9 22.9 86.3 22.8 87.6 22.8 87.6 22.8 87.6 22.8 87.6 22 86.3 21.4 84.7 21.1 83.3"/><path d="M25 90.7C26.8 90.2 26 86.3 23.5 88.3 21.9 89.5 23.1 90.4 25 90.7"/><path d="M20.8 56.8C18.9 57.8 16.8 59.1 14.7 59.6 12.8 60.1 9.2 59.6 8.8 57.1 8.5 54.6 12 53.5 13.8 53.8 16.2 54 18.6 55.6 20.6 56.7 20.7 56.7 20.8 56.7 20.8 56.8"/><path d="M20.9 56.8C20 59.4 17.5 69.3 12.9 67 10.7 65.8 12.5 62.1 13.6 60.8 15.3 59 18 58 20.2 57.1 20.4 57 20.7 56.9 20.9 56.8"/><path d="M20.9 56.8C20 54.2 17.5 44.3 12.9 46.6 10.7 47.8 12.5 51.5 13.6 52.8 15.3 54.6 18 55.6 20.2 56.5 20.4 56.6 20.6 56.7 20.9 56.8"/><path d="M21.1 62.7C20.7 64.4 20.6 66.9 22.1 68.1 23.1 68.9 25.6 68.7 25 66.9 24.9 66.6 23.7 66.2 23.4 65.8 22.9 65 22.9 63.4 22.9 62.4 22.8 61.1 22.9 59.7 22.8 58.4 22.8 58.4 22.8 58.4 22.8 58.4 22 59.7 21.4 61.2 21.1 62.7"/><path d="M21.1 50.9C20.7 49.3 20.6 46.8 22.1 45.5 23.1 44.7 25.6 45 25 46.8 24.9 47.1 23.7 47.5 23.4 47.9 22.9 48.7 22.9 50.3 22.9 51.2 22.8 52.6 22.9 54 22.8 55.3 22.8 55.3 22.8 55.3 22.8 55.3 22 54 21.4 52.4 21.1 50.9"/><path d="M25 58.4C26.8 57.9 26 54 23.5 56 21.9 57.2 23.1 58.1 25 58.4"/><path d="M20.8 24.5C18.9 25.5 16.8 26.7 14.7 27.3 12.8 27.8 9.2 27.3 8.8 24.8 8.5 22.3 12 21.2 13.8 21.4 16.2 21.7 18.6 23.3 20.6 24.4 20.7 24.4 20.8 24.4 20.8 24.5"/><path d="M20.9 24.5C20 27.1 17.5 37 12.9 34.7 10.7 33.5 12.5 29.7 13.6 28.5 15.3 26.6 18 25.7 20.2 24.7 20.4 24.7 20.7 24.6 20.9 24.5"/><path d="M20.9 24.5C20 21.9 17.5 12 12.9 14.3 10.7 15.4 12.5 19.2 13.6 20.5 15.3 22.3 18 23.3 20.2 24.2 20.4 24.3 20.7 24.4 20.9 24.5"/><path d="M21.1 30.4C20.7 32.1 20.6 34.6 22.1 35.8 23.1 36.6 25.6 36.4 25 34.6 24.9 34.2 23.7 33.9 23.4 33.5 22.9 32.7 22.9 31.1 22.9 30.1 22.8 28.8 23 27.4 22.8 26 22 27.3 21.4 28.9 21.1 30.4"/><path d="M21.1 18.6C20.7 17 20.6 14.4 22.1 13.2 23.1 12.4 25.6 12.7 25 14.5 24.9 14.8 23.7 15.1 23.4 15.6 22.9 16.4 22.9 18 22.9 18.9 22.8 20.3 23 21.7 22.8 23 22 21.7 21.4 20.1 21.1 18.6"/><path d="M25 26.1C26.8 25.6 26 21.7 23.5 23.7 21.9 24.9 23.1 25.7 25 26.1"/><path d="M20.8 121.4C18.9 122.4 16.8 123.7 14.7 124.2 12.8 124.7 9.2 124.3 8.8 121.7 8.5 119.3 12 118.2 13.8 118.4 16.2 118.7 18.6 120.2 20.6 121.3 20.7 121.3 20.8 121.4 20.8 121.4"/><path d="M20.9 121.4C20 124 17.5 133.9 12.9 131.6 10.7 130.5 12.5 126.7 13.6 125.4 15.3 123.6 18 122.6 20.2 121.7 20.4 121.6 20.7 121.5 20.9 121.4"/><path d="M20.9 121.4C20 118.8 17.5 108.9 12.9 111.2 10.7 112.4 12.5 116.2 13.6 117.4 15.3 119.3 18 120.2 20.2 121.2 20.4 121.2 20.7 121.3 20.9 121.4"/><path d="M21.1 127.4C20.7 129 20.6 131.5 22.1 132.8 23.1 133.6 25.6 133.3 25 131.5 24.9 131.2 23.7 130.8 23.4 130.4 22.9 129.6 22.9 128 22.9 127.1 22.8 125.7 22.9 124.3 22.8 123 22.8 123 22.8 123 22.8 123 22 124.3 21.4 125.9 21.1 127.4"/><path d="M21.1 115.6C20.7 113.9 20.6 111.4 22.1 110.2 23.1 109.4 25.6 109.6 25 111.4 24.9 111.8 23.7 112.1 23.4 112.5 22.9 113.3 22.9 114.9 22.9 115.9 22.8 117.2 23 118.6 22.8 119.9 22 118.7 21.4 117 21.1 115.6"/><path d="M25 123C26.8 122.6 26 118.6 23.5 120.6 21.9 121.8 23.1 122.7 25 123"/><path d="M73.2 146.6L73.2 146.6" style="fill:none;stroke-width:0.03"/><path d="M75.7 112.2C77.3 112.2 91.7 112.1 91.7 112.4 91.7 115.6 91.7 118.9 91.7 122.2 91.7 124.1 91.7 125.9 91.7 127.8 91.7 128.3 92 130.4 91.7 130.7 90.7 131.8 75.7 130.1 75.7 130.6 75.7 124.5 75.7 118.4 75.7 112.2" class="a"/><path d="M76.7 115.7C77.3 114.9 78 114.2 78.7 113.4 79 114.6 79.3 115.7 79.7 116.9 78.7 116.5 77.7 116.1 76.7 115.7" class="c"/><path d="M88.7 113.4C89.3 114.2 90 114.9 90.7 115.7 89.7 116.1 88.7 116.5 87.7 116.9 88 115.7 88.3 114.6 88.7 113.4" class="c"/><path d="M88.7 129.5C89.4 128.7 90.1 128 90.7 127.2 89.7 126.8 88.7 126.4 87.7 126 88.1 127.2 88.4 128.3 88.7 129.5" class="c"/><path d="M78.7 129.6C78 128.8 77.3 128 76.7 127.3 77.7 126.9 78.7 126.5 79.7 126.1 79.3 127.3 79 128.4 78.7 129.6" class="c"/><path d="M83.7 112.2C83 114.5 82.4 116.8 81.7 119.1 81.4 119.9 76.6 121.1 75.7 121.5 76.6 121.8 81.4 123 81.7 123.9 82.4 126.1 83 128.4 83.7 130.7 84.3 128.4 85 126.1 85.6 123.9 85.9 123 90.7 121.8 91.7 121.5 90.7 121.1 85.9 119.9 85.6 119.1 85 116.8 84.3 114.5 83.7 112.2" class="c"/><path d="M132.7 115.7C132.4 117.2 132.1 118.7 131.7 120.2 131.6 120.7 128.3 121.3 127.7 121.5 128.3 121.7 131.6 122.2 131.7 122.7 132.1 124.2 132.4 125.7 132.7 127.3 133 125.7 133.4 124.2 133.7 122.7 133.8 122.2 137.1 121.7 137.7 121.5 137.1 121.3 133.8 120.7 133.7 120.2 133.4 118.7 133 117.2 132.7 115.7" class="b"/><path d="M132.7 99.5C132.4 101 132 102.5 131.7 104.1 131.6 104.6 128.3 105.1 127.7 105.3 128.3 105.5 131.6 106.1 131.7 106.6 132 108.1 132.4 109.6 132.7 111.1 133 109.6 133.3 108.1 133.7 106.6 133.8 106.1 137.1 105.5 137.7 105.3 137.1 105.1 133.8 104.6 133.7 104.1 133.3 102.5 133 101 132.7 99.5" class="b"/><path d="M132.7 131.9C132.4 133.4 132.1 134.9 131.7 136.4 131.6 136.9 128.3 137.4 127.7 137.6 128.3 137.8 131.6 138.4 131.7 138.9 132.1 140.4 132.4 141.9 132.7 143.4 133 141.9 133.4 140.4 133.7 138.9 133.8 138.4 137.1 137.8 137.7 137.6 137.1 137.4 133.8 136.9 133.7 136.4 133.4 134.9 133 133.4 132.7 131.9" class="b"/><path d="M118.7 115.7C118.4 117.2 118 118.7 117.7 120.2 117.6 120.7 114.3 121.3 113.7 121.5 114.3 121.7 117.6 122.2 117.7 122.7 118 124.2 118.4 125.7 118.7 127.3 119 125.7 119.3 124.2 119.7 122.7 119.8 122.2 123.1 121.7 123.7 121.5 123.1 121.3 119.8 120.7 119.7 120.2 119.3 118.7 119 117.2 118.7 115.7" class="b"/><path d="M118.7 99.5C118.4 101 118 102.5 117.7 104.1 117.6 104.6 114.3 105.1 113.7 105.3 114.3 105.5 117.6 106.1 117.7 106.6 118 108.1 118.4 109.6 118.7 111.1 119 109.6 119.3 108.1 119.7 106.6 119.8 106.1 123.1 105.5 123.7 105.3 123.1 105.1 119.8 104.6 119.7 104.1 119.3 102.5 119 101 118.7 99.5" class="b"/><path d="M118.7 131.9C118.4 133.4 118.1 134.9 117.7 136.4 117.6 136.9 114.3 137.4 113.7 137.6 114.3 137.8 117.6 138.4 117.7 138.9 118.1 140.4 118.4 141.9 118.7 143.4 119 141.9 119.4 140.4 119.7 138.9 119.8 138.4 123.1 137.8 123.7 137.6 123.1 137.4 119.8 136.9 119.7 136.4 119.4 134.9 119 133.4 118.7 131.9" class="b"/><path d="M90.7 163C90.4 164.5 90 166 89.7 167.5 89.6 168.1 86.3 168.6 85.7 168.8 86.3 169 89.6 169.5 89.7 170.1 90 171.6 90.4 173.1 90.7 174.6 91 173.1 91.3 171.6 91.7 170.1 91.8 169.5 95.1 169 95.7 168.8 95.1 168.6 91.8 168.1 91.7 167.5 91.3 166 91 164.5 90.7 163" class="b"/><path d="M76.7 163C76.3 164.5 76 166 75.7 167.5 75.6 168.1 72.3 168.6 71.7 168.8 72.3 169 75.6 169.5 75.7 170.1 76 171.6 76.3 173.1 76.7 174.6 77 173.1 77.3 171.6 77.6 170.1 77.8 169.5 81.1 169 81.7 168.8 81.1 168.6 77.8 168.1 77.6 167.5 77.3 166 77 164.5 76.7 163" class="b"/><path d="M104.7 163C104.3 164.5 104 166 103.7 167.5 103.6 168 100.3 168.6 99.7 168.8 100.3 168.9 103.6 169.5 103.7 170 104 171.5 104.3 173 104.7 174.5 105 173 105.3 171.5 105.7 170 105.8 169.5 109.1 168.9 109.7 168.8 109.1 168.6 105.8 168 105.7 167.5 105.3 166 105 164.5 104.7 163" class="b"/><path d="M62.7 163C62.4 164.5 62 166 61.7 167.6 61.6 168.1 58.3 168.6 57.7 168.8 58.3 169 61.6 169.6 61.7 170.1 62 171.6 62.4 173.1 62.7 174.6 63 173.1 63.3 171.6 63.7 170.1 63.8 169.6 67.1 169 67.7 168.8 67.1 168.6 63.8 168.1 63.7 167.6 63.3 166 63 164.5 62.7 163" class="b"/><path d="M132.7 163C132.3 164.5 132 166 131.7 167.5 131.6 168.1 128.3 168.6 127.7 168.8 128.3 169 131.6 169.5 131.7 170.1 132 171.6 132.3 173.1 132.7 174.6 133 173.1 133.3 171.6 133.7 170.1 133.8 169.5 137.1 169 137.7 168.8 137.1 168.6 133.8 168.1 133.7 167.5 133.3 166 133 164.5 132.7 163" class="b"/><path d="M118.7 163C118.3 164.5 118 166 117.7 167.5 117.6 168.1 114.3 168.6 113.7 168.8 114.3 169 117.6 169.5 117.7 170.1 118 171.6 118.3 173.1 118.7 174.6 119 173.1 119.3 171.6 119.6 170.1 119.8 169.5 123.1 169 123.7 168.8 123.1 168.6 119.8 168.1 119.6 167.5 119.3 166 119 164.5 118.7 163" class="b"/><path d="M90.7 179.2C90.4 180.7 90 182.2 89.7 183.7 89.6 184.2 86.3 184.8 85.7 185 86.3 185.1 89.6 185.7 89.7 186.2 90 187.7 90.4 189.2 90.7 190.7 91 189.2 91.3 187.7 91.7 186.2 91.8 185.7 95.1 185.1 95.7 185 95.1 184.8 91.8 184.2 91.7 183.7 91.3 182.2 91 180.7 90.7 179.2" class="b"/><path d="M76.7 179.2C76.3 180.7 76 182.2 75.7 183.7 75.6 184.2 72.3 184.8 71.7 185 72.3 185.1 75.6 185.7 75.7 186.2 76 187.7 76.3 189.2 76.7 190.7 77 189.2 77.3 187.7 77.6 186.2 77.8 185.7 81.1 185.1 81.7 185 81.1 184.8 77.8 184.2 77.6 183.7 77.3 182.2 77 180.7 76.7 179.2" class="b"/><path d="M104.7 179.2C104.3 180.7 104 182.2 103.7 183.7 103.6 184.2 100.3 184.8 99.7 184.9 100.3 185.1 103.6 185.7 103.7 186.2 104 187.7 104.3 189.2 104.7 190.7 105 189.2 105.3 187.7 105.7 186.2 105.8 185.7 109.1 185.1 109.7 184.9 109.1 184.8 105.8 184.2 105.7 183.7 105.3 182.2 105 180.7 104.7 179.2" class="b"/><path d="M62.7 179.2C62.4 180.7 62 182.2 61.7 183.7 61.6 184.2 58.3 184.8 57.7 185 58.3 185.1 61.6 185.7 61.7 186.2 62 187.7 62.4 189.2 62.7 190.7 63 189.2 63.3 187.7 63.7 186.2 63.8 185.7 67.1 185.1 67.7 185 67.1 184.8 63.8 184.2 63.7 183.7 63.3 182.2 63 180.7 62.7 179.2" class="b"/><path d="M132.7 179.2C132.3 180.7 132 182.2 131.7 183.7 131.6 184.2 128.3 184.8 127.7 185 128.3 185.1 131.6 185.7 131.7 186.2 132 187.7 132.3 189.2 132.7 190.7 133 189.2 133.3 187.7 133.7 186.2 133.8 185.7 137.1 185.1 137.7 185 137.1 184.8 133.8 184.2 133.7 183.7 133.3 182.2 133 180.7 132.7 179.2" class="b"/><path d="M118.7 179.2C118.3 180.7 118 182.2 117.7 183.7 117.6 184.2 114.3 184.8 113.7 185 114.3 185.1 117.6 185.7 117.7 186.2 118 187.7 118.3 189.2 118.7 190.7 119 189.2 119.3 187.7 119.6 186.2 119.8 185.7 123.1 185.1 123.7 185 123.1 184.8 119.8 184.2 119.6 183.7 119.3 182.2 119 180.7 118.7 179.2" class="b"/><path d="M90.7 195.3C90.4 196.8 90 198.4 89.7 199.9 89.6 200.4 86.3 200.9 85.7 201.1 86.3 201.3 89.6 201.9 89.7 202.4 90 203.9 90.4 205.4 90.7 206.9 91 205.4 91.3 203.9 91.7 202.4 91.8 201.9 95.1 201.3 95.7 201.1 95.1 200.9 91.8 200.4 91.7 199.9 91.3 198.4 91 196.8 90.7 195.3" class="b"/><path d="M76.7 195.3C76.3 196.8 76 198.4 75.7 199.9 75.6 200.4 72.3 200.9 71.7 201.1 72.3 201.3 75.6 201.9 75.7 202.4 76 203.9 76.3 205.4 76.7 206.9 77 205.4 77.3 203.9 77.6 202.4 77.8 201.9 81.1 201.3 81.7 201.1 81.1 200.9 77.8 200.4 77.6 199.9 77.3 198.4 77 196.8 76.7 195.3" class="b"/><path d="M104.7 195.3C104.3 196.8 104 198.3 103.7 199.8 103.6 200.4 100.3 200.9 99.7 201.1 100.3 201.3 103.6 201.8 103.7 202.3 104 203.9 104.3 205.4 104.7 206.9 105 205.4 105.3 203.9 105.7 202.3 105.8 201.8 109.1 201.3 109.7 201.1 109.1 200.9 105.8 200.4 105.7 199.8 105.3 198.3 105 196.8 104.7 195.3" class="b"/><path d="M62.7 195.4C62.4 196.9 62 198.4 61.7 199.9 61.6 200.4 58.3 201 57.7 201.1 58.3 201.3 61.6 201.9 61.7 202.4 62 203.9 62.4 205.4 62.7 206.9 63 205.4 63.3 203.9 63.7 202.4 63.8 201.9 67.1 201.3 67.7 201.1 67.1 201 63.8 200.4 63.7 199.9 63.3 198.4 63 196.9 62.7 195.4" class="b"/><path d="M132.7 195.3C132.3 196.8 132 198.3 131.7 199.8 131.6 200.4 128.3 200.9 127.7 201.1 128.3 201.3 131.6 201.8 131.7 202.4 132 203.9 132.3 205.4 132.7 206.9 133 205.4 133.3 203.9 133.7 202.4 133.8 201.8 137.1 201.3 137.7 201.1 137.1 200.9 133.8 200.4 133.7 199.8 133.3 198.3 133 196.8 132.7 195.3" class="b"/><path d="M118.7 195.3C118.3 196.8 118 198.3 117.7 199.8 117.6 200.4 114.3 200.9 113.7 201.1 114.3 201.3 117.6 201.8 117.7 202.4 118 203.9 118.3 205.4 118.7 206.9 119 205.4 119.3 203.9 119.6 202.4 119.8 201.8 123.1 201.3 123.7 201.1 123.1 200.9 119.8 200.4 119.6 199.8 119.3 198.3 119 196.8 118.7 195.3" class="b"/><path d="M90.7 148C90.4 149.5 90 151 89.7 152.5 89.6 153.1 86.3 153.6 85.7 153.8 86.3 154 89.6 154.5 89.7 155.1 90 156.6 90.4 158.1 90.7 159.6 91 158.1 91.3 156.6 91.7 155.1 91.8 154.5 95.1 154 95.7 153.8 95.1 153.6 91.8 153.1 91.7 152.5 91.3 151 91 149.5 90.7 148" class="b"/><path d="M76.7 148C76.3 149.5 76 151 75.7 152.5 75.6 153.1 72.3 153.6 71.7 153.8 72.3 154 75.6 154.5 75.7 155.1 76 156.6 76.3 158.1 76.7 159.6 77 158.1 77.3 156.6 77.6 155.1 77.8 154.5 81.1 154 81.7 153.8 81.1 153.6 77.8 153.1 77.6 152.5 77.3 151 77 149.5 76.7 148" class="b"/><path d="M104.7 148C104.3 149.5 104 151 103.7 152.5 103.6 153 100.3 153.6 99.7 153.8 100.3 153.9 103.6 154.5 103.7 155 104 156.5 104.3 158 104.7 159.5 105 158 105.3 156.5 105.7 155 105.8 154.5 109.1 153.9 109.7 153.8 109.1 153.6 105.8 153 105.7 152.5 105.3 151 105 149.5 104.7 148" class="b"/><path d="M62.7 148C62.4 149.5 62 151 61.7 152.5 61.6 153.1 58.3 153.6 57.7 153.8 58.3 154 61.6 154.5 61.7 155.1 62 156.6 62.4 158.1 62.7 159.6 63 158.1 63.3 156.6 63.7 155.1 63.8 154.5 67.1 154 67.7 153.8 67.1 153.6 63.8 153.1 63.7 152.5 63.3 151 63 149.5 62.7 148" class="b"/><path d="M132.7 148C132.3 149.5 132 151 131.7 152.5 131.6 153.1 128.3 153.6 127.7 153.8 128.3 154 131.6 154.5 131.7 155.1 132 156.6 132.3 158.1 132.7 159.6 133 158.1 133.3 156.6 133.7 155.1 133.8 154.5 137.1 154 137.7 153.8 137.1 153.6 133.8 153.1 133.7 152.5 133.3 151 133 149.5 132.7 148" class="b"/><path d="M118.7 148C118.3 149.5 118 151 117.7 152.5 117.6 153.1 114.3 153.6 113.7 153.8 114.3 154 117.6 154.5 117.7 155.1 118 156.6 118.3 158.1 118.7 159.6 119 158.1 119.3 156.6 119.6 155.1 119.8 154.5 123.1 154 123.7 153.8 123.1 153.6 119.8 153.1 119.6 152.5 119.3 151 119 149.5 118.7 148" class="b"/><path d="M76.7 83.4C76.3 84.9 76 86.4 75.7 87.9 75.6 88.4 72.3 89 71.7 89.2 72.3 89.3 75.6 89.9 75.7 90.4 76 91.9 76.3 93.4 76.7 94.9 77 93.4 77.3 91.9 77.6 90.4 77.8 89.9 81.1 89.3 81.7 89.2 81.1 89 77.8 88.4 77.6 87.9 77.3 86.4 77 84.9 76.7 83.4" class="b"/><path d="M62.7 83.4C62.3 84.9 62 86.4 61.7 87.9 61.6 88.4 58.3 89 57.7 89.2 58.3 89.3 61.6 89.9 61.7 90.4 62 91.9 62.3 93.4 62.7 94.9 63 93.4 63.3 91.9 63.6 90.4 63.7 89.9 67 89.3 67.7 89.2 67 89 63.7 88.4 63.6 87.9 63.3 86.4 63 84.9 62.7 83.4" class="b"/><path d="M104.7 83.4C104.4 84.9 104 86.4 103.7 87.9 103.6 88.4 100.3 89 99.7 89.2 100.3 89.3 103.6 89.9 103.7 90.4 104 91.9 104.4 93.4 104.7 94.9 105 93.4 105.3 91.9 105.7 90.4 105.8 89.9 109.1 89.3 109.7 89.2 109.1 89 105.8 88.4 105.7 87.9 105.3 86.4 105 84.9 104.7 83.4" class="b"/><path d="M90.7 83.4C90.3 84.9 90 86.4 89.7 87.9 89.6 88.4 86.3 89 85.7 89.2 86.3 89.3 89.6 89.9 89.7 90.4 90 91.9 90.3 93.4 90.7 94.9 91 93.4 91.3 91.9 91.6 90.4 91.8 89.9 95.1 89.3 95.7 89.2 95.1 89 91.8 88.4 91.6 87.9 91.3 86.4 91 84.9 90.7 83.4" class="b"/><path d="M62.7 67.2C62.3 68.7 62 70.2 61.7 71.7 61.6 72.3 58.3 72.8 57.7 73 58.3 73.2 61.6 73.7 61.7 74.3 62 75.8 62.3 77.3 62.7 78.8 63 77.3 63.3 75.8 63.6 74.3 63.8 73.7 67.1 73.2 67.7 73 67.1 72.8 63.8 72.3 63.6 71.7 63.3 70.2 63 68.7 62.7 67.2" class="b"/><path d="M76.7 67.2C76.3 68.7 76 70.2 75.7 71.7 75.6 72.3 72.3 72.8 71.7 73 72.3 73.2 75.6 73.7 75.7 74.3 76 75.8 76.3 77.3 76.7 78.8 77 77.3 77.3 75.8 77.6 74.3 77.8 73.7 81.1 73.2 81.7 73 81.1 72.8 77.8 72.3 77.6 71.7 77.3 70.2 77 68.7 76.7 67.2" class="b"/><path d="M90.7 67.2C90.4 68.7 90 70.2 89.7 71.7 89.6 72.3 86.3 72.8 85.7 73 86.3 73.2 89.6 73.7 89.7 74.3 90 75.8 90.4 77.3 90.7 78.8 91 77.3 91.3 75.8 91.7 74.3 91.8 73.7 95.1 73.2 95.7 73 95.1 72.8 91.8 72.3 91.7 71.7 91.3 70.2 91 68.7 90.7 67.2" class="b"/><path d="M104.7 67.2C104.4 68.7 104 70.2 103.7 71.7 103.6 72.3 100.3 72.8 99.7 73 100.3 73.2 103.6 73.7 103.7 74.3 104 75.8 104.4 77.3 104.7 78.8 105 77.3 105.3 75.8 105.7 74.3 105.8 73.7 109.1 73.2 109.7 73 109.1 72.8 105.8 72.3 105.7 71.7 105.3 70.2 105 68.7 104.7 67.2" class="b"/><path d="M132.7 83.4C132.4 84.9 132 86.4 131.7 87.9 131.6 88.4 128.3 89 127.7 89.1 128.3 89.3 131.6 89.9 131.7 90.4 132 91.9 132.4 93.4 132.7 94.9 133 93.4 133.3 91.9 133.7 90.4 133.8 89.9 137.1 89.3 137.7 89.1 137.1 89 133.8 88.4 133.7 87.9 133.3 86.4 133 84.9 132.7 83.4" class="b"/><path d="M132.7 67.2C132.4 68.7 132.1 70.2 131.7 71.7 131.6 72.3 128.3 72.8 127.7 73 128.3 73.2 131.6 73.7 131.7 74.3 132.1 75.8 132.4 77.3 132.7 78.8 133 77.3 133.4 75.8 133.7 74.3 133.8 73.7 137.1 73.2 137.7 73 137.1 72.8 133.8 72.3 133.7 71.7 133.4 70.2 133 68.7 132.7 67.2" class="b"/><path d="M118.7 83.4C118.4 84.9 118 86.4 117.7 87.9 117.6 88.4 114.3 89 113.7 89.1 114.3 89.3 117.6 89.9 117.7 90.4 118 91.9 118.4 93.4 118.7 94.9 119 93.4 119.3 91.9 119.7 90.4 119.8 89.9 123.1 89.3 123.7 89.1 123.1 89 119.8 88.4 119.7 87.9 119.3 86.4 119 84.9 118.7 83.4" class="b"/><path d="M118.7 67.2C118.4 68.7 118 70.2 117.7 71.7 117.6 72.3 114.3 72.8 113.7 73 114.3 73.2 117.6 73.7 117.7 74.3 118 75.8 118.4 77.3 118.7 78.8 119 77.3 119.3 75.8 119.7 74.3 119.8 73.7 123.1 73.2 123.7 73 123.1 72.8 119.8 72.3 119.7 71.7 119.3 70.2 119 68.7 118.7 67.2" class="b"/><path d="M76.7 51.1C76.3 52.6 76 54.1 75.7 55.6 75.6 56.1 72.3 56.7 71.7 56.8 72.3 57 75.6 57.6 75.7 58.1 76 59.6 76.3 61.1 76.7 62.6 77 61.1 77.3 59.6 77.6 58.1 77.8 57.6 81.1 57 81.7 56.8 81.1 56.7 77.8 56.1 77.6 55.6 77.3 54.1 77 52.6 76.7 51.1" class="b"/><path d="M62.7 51.1C62.3 52.6 62 54.1 61.7 55.6 61.6 56.1 58.3 56.7 57.7 56.8 58.3 57 61.6 57.6 61.7 58.1 62 59.6 62.3 61.1 62.7 62.6 63 61.1 63.3 59.6 63.6 58.1 63.7 57.6 67 57 67.7 56.8 67 56.7 63.7 56.1 63.6 55.6 63.3 54.1 63 52.6 62.7 51.1" class="b"/><path d="M104.7 51.1C104.4 52.6 104 54.1 103.7 55.6 103.6 56.1 100.3 56.7 99.7 56.8 100.3 57 103.6 57.6 103.7 58.1 104 59.6 104.4 61.1 104.7 62.6 105 61.1 105.3 59.6 105.7 58.1 105.8 57.6 109.1 57 109.7 56.8 109.1 56.7 105.8 56.1 105.7 55.6 105.3 54.1 105 52.6 104.7 51.1" class="b"/><path d="M90.7 51.1C90.3 52.6 90 54.1 89.7 55.6 89.6 56.1 86.3 56.7 85.7 56.8 86.3 57 89.6 57.6 89.7 58.1 90 59.6 90.3 61.1 90.7 62.6 91 61.1 91.3 59.6 91.6 58.1 91.8 57.6 95.1 57 95.7 56.8 95.1 56.7 91.8 56.1 91.6 55.6 91.3 54.1 91 52.6 90.7 51.1" class="b"/><path d="M62.7 34.9C62.3 36.4 62 37.9 61.7 39.4 61.6 39.9 58.3 40.5 57.7 40.7 58.3 40.9 61.6 41.4 61.7 41.9 62 43.4 62.3 44.9 62.7 46.4 63 44.9 63.3 43.4 63.6 41.9 63.8 41.4 67.1 40.9 67.7 40.7 67.1 40.5 63.8 39.9 63.6 39.4 63.3 37.9 63 36.4 62.7 34.9" class="b"/><path d="M76.7 34.9C76.3 36.4 76 37.9 75.7 39.4 75.6 40 72.3 40.5 71.7 40.7 72.3 40.9 75.6 41.4 75.7 42 76 43.5 76.3 45 76.7 46.5 77 45 77.3 43.5 77.6 42 77.8 41.4 81.1 40.9 81.7 40.7 81.1 40.5 77.8 40 77.6 39.4 77.3 37.9 77 36.4 76.7 34.9" class="b"/><path d="M90.7 34.9C90.4 36.4 90 37.9 89.7 39.4 89.6 40 86.3 40.5 85.7 40.7 86.3 40.9 89.6 41.4 89.7 42 90 43.5 90.4 45 90.7 46.5 91 45 91.3 43.5 91.7 42 91.8 41.4 95.1 40.9 95.7 40.7 95.1 40.5 91.8 40 91.7 39.4 91.3 37.9 91 36.4 90.7 34.9" class="b"/><path d="M104.7 34.9C104.4 36.4 104 37.9 103.7 39.4 103.6 40 100.3 40.5 99.7 40.7 100.3 40.9 103.6 41.4 103.7 42 104 43.5 104.4 45 104.7 46.5 105 45 105.3 43.5 105.7 42 105.8 41.4 109.1 40.9 109.7 40.7 109.1 40.5 105.8 40 105.7 39.4 105.3 37.9 105 36.4 104.7 34.9" class="b"/><path d="M132.7 51.1C132.4 52.6 132 54.1 131.7 55.6 131.6 56.1 128.3 56.7 127.7 56.8 128.3 57 131.6 57.6 131.7 58.1 132 59.6 132.4 61.1 132.7 62.6 133 61.1 133.3 59.6 133.7 58.1 133.8 57.6 137.1 57 137.7 56.8 137.1 56.7 133.8 56.1 133.7 55.6 133.3 54.1 133 52.6 132.7 51.1" class="b"/><path d="M132.7 34.9C132.4 36.4 132.1 37.9 131.7 39.4 131.6 40 128.3 40.5 127.7 40.7 128.3 40.9 131.6 41.4 131.7 42 132.1 43.5 132.4 45 132.7 46.5 133 45 133.4 43.5 133.7 42 133.8 41.4 137.1 40.9 137.7 40.7 137.1 40.5 133.8 40 133.7 39.4 133.4 37.9 133 36.4 132.7 34.9" class="b"/><path d="M118.7 51.1C118.4 52.6 118 54.1 117.7 55.6 117.6 56.1 114.3 56.7 113.7 56.8 114.3 57 117.6 57.6 117.7 58.1 118 59.6 118.4 61.1 118.7 62.6 119 61.1 119.3 59.6 119.7 58.1 119.8 57.6 123.1 57 123.7 56.8 123.1 56.7 119.8 56.1 119.7 55.6 119.3 54.1 119 52.6 118.7 51.1" class="b"/><path d="M118.7 34.9C118.4 36.4 118 37.9 117.7 39.4 117.6 40 114.3 40.5 113.7 40.7 114.3 40.9 117.6 41.4 117.7 42 118 43.5 118.4 45 118.7 46.5 119 45 119.3 43.5 119.7 42 119.8 41.4 123.1 40.9 123.7 40.7 123.1 40.5 119.8 40 119.7 39.4 119.3 37.9 119 36.4 118.7 34.9" class="b"/><path d="M34.6 131.9C34.3 133.4 34 134.9 33.7 136.4 33.5 136.9 30.2 137.5 29.6 137.7 30.2 137.8 33.5 138.4 33.7 138.9 34 140.4 34.3 141.9 34.6 143.4 35 141.9 35.3 140.4 35.6 138.9 35.7 138.4 39 137.8 39.6 137.7 39 137.5 35.7 136.9 35.6 136.4 35.3 134.9 35 133.4 34.6 131.9" class="b"/><path d="M34.7 115.7C34.3 117.2 34 118.7 33.7 120.2 33.6 120.8 30.3 121.3 29.7 121.5 30.3 121.7 33.6 122.2 33.7 122.8 34 124.3 34.3 125.8 34.7 127.3 35 125.8 35.3 124.3 35.6 122.8 35.7 122.2 39 121.7 39.7 121.5 39 121.3 35.7 120.8 35.6 120.2 35.3 118.7 35 117.2 34.7 115.7" class="b"/><path d="M34.7 99.5C34.3 101.1 34 102.6 33.7 104.1 33.6 104.6 30.3 105.1 29.7 105.3 30.3 105.5 33.6 106.1 33.7 106.6 34 108.1 34.3 109.6 34.7 111.1 35 109.6 35.3 108.1 35.7 106.6 35.8 106.1 39.1 105.5 39.7 105.3 39.1 105.1 35.8 104.6 35.7 104.1 35.3 102.6 35 101.1 34.7 99.5" class="b"/><path d="M34.6 163C34.3 164.5 34 166 33.7 167.5 33.5 168.1 30.2 168.6 29.6 168.8 30.2 169 33.5 169.5 33.7 170.1 34 171.6 34.3 173.1 34.6 174.6 35 173.1 35.3 171.6 35.6 170.1 35.7 169.5 39 169 39.6 168.8 39 168.6 35.7 168.1 35.6 167.5 35.3 166 35 164.5 34.6 163" class="b"/><path d="M34.6 179.2C34.3 180.7 34 182.2 33.7 183.7 33.5 184.2 30.2 184.8 29.6 185 30.2 185.1 33.5 185.7 33.7 186.2 34 187.7 34.3 189.2 34.6 190.7 35 189.2 35.3 187.7 35.6 186.2 35.7 185.7 39 185.1 39.6 185 39 184.8 35.7 184.2 35.6 183.7 35.3 182.2 35 180.7 34.6 179.2" class="b"/><path d="M34.6 195.3C34.3 196.8 34 198.4 33.7 199.9 33.5 200.4 30.2 200.9 29.6 201.1 30.2 201.3 33.5 201.9 33.7 202.4 34 203.9 34.3 205.4 34.6 206.9 35 205.4 35.3 203.9 35.6 202.4 35.7 201.9 39 201.3 39.6 201.1 39 200.9 35.7 200.4 35.6 199.9 35.3 198.4 35 196.8 34.6 195.3" class="b"/><path d="M34.6 148C34.3 149.5 34 151 33.7 152.5 33.5 153.1 30.2 153.6 29.6 153.8 30.2 154 33.5 154.5 33.7 155.1 34 156.6 34.3 158.1 34.6 159.6 35 158.1 35.3 156.6 35.6 155.1 35.7 154.5 39 154 39.6 153.8 39 153.6 35.7 153.1 35.6 152.5 35.3 151 35 149.5 34.6 148" class="b"/><path d="M34.6 83.4C34.3 84.9 34 86.4 33.7 87.9 33.6 88.4 30.3 89 29.6 89.2 30.3 89.3 33.6 89.9 33.7 90.4 34 91.9 34.3 93.4 34.6 94.9 35 93.4 35.3 91.9 35.6 90.4 35.7 89.9 39 89.3 39.7 89.2 39 89 35.7 88.4 35.6 87.9 35.3 86.4 35 84.9 34.6 83.4" class="b"/><path d="M34.6 67.2C34.3 68.7 34 70.2 33.7 71.7 33.5 72.3 30.2 72.8 29.6 73 30.2 73.2 33.5 73.7 33.7 74.3 34 75.8 34.3 77.3 34.6 78.8 35 77.3 35.3 75.8 35.6 74.3 35.7 73.7 39 73.2 39.6 73 39 72.8 35.7 72.3 35.6 71.7 35.3 70.2 35 68.7 34.6 67.2" class="b"/><path d="M34.6 51.1C34.3 52.6 34 54.1 33.7 55.6 33.6 56.1 30.3 56.7 29.6 56.8 30.3 57 33.6 57.6 33.7 58.1 34 59.6 34.3 61.1 34.6 62.6 35 61.1 35.3 59.6 35.6 58.1 35.7 57.6 39 57 39.7 56.8 39 56.7 35.7 56.1 35.6 55.6 35.3 54.1 35 52.6 34.6 51.1" class="b"/><path d="M34.6 34.9C34.3 36.4 34 37.9 33.7 39.4 33.5 40 30.2 40.5 29.6 40.7 30.2 40.9 33.5 41.4 33.7 42 34 43.5 34.3 45 34.6 46.5 35 45 35.3 43.5 35.6 42 35.7 41.4 39 40.9 39.6 40.7 39 40.5 35.7 40 35.6 39.4 35.3 37.9 35 36.4 34.6 34.9" class="b"/><path d="M48.6 131.9C48.3 133.4 48 134.9 47.7 136.4 47.5 136.9 44.2 137.5 43.6 137.7 44.2 137.8 47.5 138.4 47.7 138.9 48 140.4 48.3 141.9 48.6 143.4 49 141.9 49.3 140.4 49.6 138.9 49.7 138.4 53 137.8 53.6 137.7 53 137.5 49.7 136.9 49.6 136.4 49.3 134.9 49 133.4 48.6 131.9" class="b"/><path d="M48.7 115.7C48.3 117.2 48 118.7 47.7 120.2 47.6 120.8 44.3 121.3 43.7 121.5 44.3 121.7 47.6 122.2 47.7 122.8 48 124.3 48.3 125.8 48.7 127.3 49 125.8 49.3 124.3 49.6 122.8 49.8 122.2 53.1 121.7 53.7 121.5 53.1 121.3 49.8 120.8 49.6 120.2 49.3 118.7 49 117.2 48.7 115.7" class="b"/><path d="M48.7 99.5C48.4 101.1 48 102.6 47.7 104.1 47.6 104.6 44.3 105.1 43.7 105.3 44.3 105.5 47.6 106.1 47.7 106.6 48 108.1 48.4 109.6 48.7 111.1 49 109.6 49.3 108.1 49.7 106.6 49.8 106.1 53.1 105.5 53.7 105.3 53.1 105.1 49.8 104.6 49.7 104.1 49.3 102.6 49 101.1 48.7 99.5" class="b"/><path d="M48.6 163C48.3 164.5 48 166 47.7 167.5 47.6 168.1 44.3 168.6 43.6 168.8 44.3 169 47.6 169.5 47.7 170.1 48 171.6 48.3 173.1 48.6 174.6 49 173.1 49.3 171.6 49.6 170.1 49.7 169.5 53 169 53.7 168.8 53 168.6 49.7 168.1 49.6 167.5 49.3 166 49 164.5 48.6 163" class="b"/><path d="M48.6 179.2C48.3 180.7 48 182.2 47.7 183.7 47.6 184.2 44.3 184.8 43.6 185 44.3 185.1 47.6 185.7 47.7 186.2 48 187.7 48.3 189.2 48.6 190.7 49 189.2 49.3 187.7 49.6 186.2 49.7 185.7 53 185.1 53.7 185 53 184.8 49.7 184.2 49.6 183.7 49.3 182.2 49 180.7 48.6 179.2" class="b"/><path d="M48.6 195.3C48.3 196.8 48 198.4 47.7 199.9 47.6 200.4 44.3 200.9 43.6 201.1 44.3 201.3 47.6 201.9 47.7 202.4 48 203.9 48.3 205.4 48.6 206.9 49 205.4 49.3 203.9 49.6 202.4 49.7 201.9 53 201.3 53.7 201.1 53 200.9 49.7 200.4 49.6 199.9 49.3 198.4 49 196.8 48.6 195.3" class="b"/><path d="M48.6 148C48.3 149.5 48 151 47.7 152.5 47.6 153.1 44.3 153.6 43.6 153.8 44.3 154 47.6 154.5 47.7 155.1 48 156.6 48.3 158.1 48.6 159.6 49 158.1 49.3 156.6 49.6 155.1 49.7 154.5 53 154 53.7 153.8 53 153.6 49.7 153.1 49.6 152.5 49.3 151 49 149.5 48.6 148" class="b"/><path d="M48.7 83.4C48.3 84.9 48 86.4 47.7 87.9 47.6 88.4 44.3 89 43.7 89.2 44.3 89.3 47.6 89.9 47.7 90.4 48 91.9 48.3 93.4 48.7 94.9 49 93.4 49.3 91.9 49.6 90.4 49.7 89.9 53 89.3 53.7 89.2 53 89 49.7 88.4 49.6 87.9 49.3 86.4 49 84.9 48.7 83.4" class="b"/><path d="M48.6 67.2C48.3 68.7 48 70.2 47.7 71.7 47.6 72.3 44.3 72.8 43.6 73 44.3 73.2 47.6 73.7 47.7 74.3 48 75.8 48.3 77.3 48.6 78.8 49 77.3 49.3 75.8 49.6 74.3 49.7 73.7 53 73.2 53.7 73 53 72.8 49.7 72.3 49.6 71.7 49.3 70.2 49 68.7 48.6 67.2" class="b"/><path d="M48.7 51.1C48.3 52.6 48 54.1 47.7 55.6 47.6 56.1 44.3 56.7 43.7 56.8 44.3 57 47.6 57.6 47.7 58.1 48 59.6 48.3 61.1 48.7 62.6 49 61.1 49.3 59.6 49.6 58.1 49.7 57.6 53 57 53.7 56.8 53 56.7 49.7 56.1 49.6 55.6 49.3 54.1 49 52.6 48.7 51.1" class="b"/><path d="M48.6 34.9C48.3 36.4 48 37.9 47.7 39.4 47.6 40 44.3 40.5 43.6 40.7 44.3 40.9 47.6 41.4 47.7 42 48 43.5 48.3 45 48.6 46.5 49 45 49.3 43.5 49.6 42 49.7 41.4 53 40.9 53.7 40.7 53 40.5 49.7 40 49.6 39.4 49.3 37.9 49 36.4 48.6 34.9" class="b"/><path d="M8.4 6.6C6 6.6 6.9 13.1 6.9 14.3 6.9 20.2 6.9 26.1 6.9 31.9 6.9 51.3 6.9 70.7 6.9 90.1 6.9 131.6 6.9 173.2 6.9 214.8 6.9 219.9 6.9 225.1 6.9 230.3 6.9 232 6.2 235.7 8.8 235.7 22.1 235.7 35.5 235.7 48.8 235.7 85.2 235.7 121.6 235.7 158 235.7 160.8 235.7 160.2 232.8 160.2 230.8 160.2 225.9 160.2 220.9 160.2 216 160.2 197.6 160.2 179.3 160.2 161 160.2 118.4 160.2 75.9 160.2 33.3 160.2 27.2 160.2 21.2 160.2 15.1 160.2 13.1 160.7 10.4 160.2 8.4 160.2 5.4 151.8 6.6 150.1 6.6 142.1 6.6 134.2 6.6 126.2 6.6 87.8 6.6 49.5 6.6 11.1 6.6 10.2 6.6 9.3 6.6 8.4 6.6" style="fill:none;stroke:#fb0f0c"/></g></svg>
